G75*
G70*
%OFA0B0*%
%FSLAX24Y24*%
%IPPOS*%
%LPD*%
%AMOC8*
5,1,8,0,0,1.08239X$1,22.5*
%
%ADD10R,0.0592X0.0710*%
%ADD11R,0.0710X0.0592*%
%ADD12R,0.0482X0.0580*%
%ADD13R,0.0281X0.0281*%
%ADD14R,0.0375X0.0336*%
%ADD15R,0.0580X0.0482*%
%ADD16R,0.0790X0.0710*%
%ADD17C,0.0474*%
%ADD18C,0.1025*%
%ADD19OC8,0.1080*%
%ADD20C,0.0592*%
%ADD21C,0.0562*%
%ADD22R,0.1232X0.1232*%
%ADD23C,0.1232*%
%ADD24C,0.0047*%
%ADD25R,0.0336X0.0611*%
%ADD26R,0.0513X0.0474*%
%ADD27C,0.2620*%
%ADD28C,0.0437*%
%ADD29R,0.0493X0.0505*%
%ADD30C,0.0680*%
D10*
X006319Y016970D03*
X007106Y016970D03*
X006311Y017852D03*
X007098Y017852D03*
D11*
X005948Y016110D03*
X005948Y015322D03*
X004380Y015742D03*
X004380Y014954D03*
D12*
X007462Y020500D03*
X006498Y020500D03*
D13*
X006980Y020244D03*
X006980Y020756D03*
X006815Y014929D03*
X007326Y014929D03*
X007037Y011444D03*
X007549Y011444D03*
D14*
X004208Y017238D03*
X004602Y017238D03*
X004602Y016844D03*
X004208Y016844D03*
D15*
X007070Y014446D03*
X007070Y015411D03*
X007293Y010962D03*
X007293Y011927D03*
D16*
X007183Y012637D03*
X007183Y013756D03*
D17*
X006185Y023389D03*
X003185Y022989D03*
X003185Y023789D03*
D18*
X006185Y022389D03*
X006185Y024389D03*
X003935Y022389D03*
X003935Y024389D03*
D19*
X013395Y006059D03*
X017332Y006098D03*
D20*
X013968Y030423D02*
X013968Y030935D01*
X018220Y030935D02*
X018220Y030423D01*
D21*
X013968Y031709D02*
X013968Y032192D01*
X018220Y032192D02*
X018220Y031709D01*
D22*
X018451Y023503D03*
D23*
X022061Y020474D03*
X018451Y010555D03*
X022061Y013584D03*
X011665Y022307D03*
X020523Y011751D03*
X009309Y015833D03*
X020523Y022307D03*
X010127Y020474D03*
X011665Y011751D03*
X010127Y013584D03*
D24*
X016324Y002493D02*
X016648Y002493D01*
X016648Y002353D01*
X016324Y002353D01*
X016324Y002493D01*
X016324Y002399D02*
X016648Y002399D01*
X016648Y002445D02*
X016324Y002445D01*
X016324Y002491D02*
X016648Y002491D01*
X016324Y002237D02*
X016648Y002237D01*
X016648Y002097D01*
X016324Y002097D01*
X016324Y002237D01*
X016324Y002143D02*
X016648Y002143D01*
X016648Y002189D02*
X016324Y002189D01*
X016324Y002235D02*
X016648Y002235D01*
X016324Y001981D02*
X016648Y001981D01*
X016648Y001841D01*
X016324Y001841D01*
X016324Y001981D01*
X016324Y001887D02*
X016648Y001887D01*
X016648Y001933D02*
X016324Y001933D01*
X016324Y001979D02*
X016648Y001979D01*
X015540Y001981D02*
X015864Y001981D01*
X015864Y001841D01*
X015540Y001841D01*
X015540Y001981D01*
X015540Y001887D02*
X015864Y001887D01*
X015864Y001933D02*
X015540Y001933D01*
X015540Y001979D02*
X015864Y001979D01*
X015540Y002237D02*
X015864Y002237D01*
X015864Y002097D01*
X015540Y002097D01*
X015540Y002237D01*
X015540Y002143D02*
X015864Y002143D01*
X015864Y002189D02*
X015540Y002189D01*
X015540Y002235D02*
X015864Y002235D01*
X015540Y002493D02*
X015864Y002493D01*
X015864Y002353D01*
X015540Y002353D01*
X015540Y002493D01*
X015540Y002399D02*
X015864Y002399D01*
X015864Y002445D02*
X015540Y002445D01*
X015540Y002491D02*
X015864Y002491D01*
D25*
X016094Y002167D03*
D26*
X017728Y002935D03*
X017728Y002265D03*
X017078Y002265D03*
X017078Y002935D03*
D27*
X006252Y026675D03*
X025937Y026675D03*
X006252Y007383D03*
X025937Y007383D03*
D28*
X006252Y027675D03*
X006752Y027550D03*
X007252Y026675D03*
X006752Y025800D03*
X006252Y025675D03*
X005377Y026175D03*
X005252Y026675D03*
X005377Y027175D03*
X005752Y027550D03*
X007127Y026175D03*
X005752Y025800D03*
X007127Y027175D03*
X025937Y027675D03*
X026437Y027550D03*
X026937Y026675D03*
X026437Y025800D03*
X025937Y025675D03*
X025062Y026175D03*
X024937Y026675D03*
X025062Y027175D03*
X025437Y027550D03*
X026812Y026175D03*
X025437Y025800D03*
X026812Y027175D03*
X006252Y008383D03*
X006752Y008258D03*
X007252Y007383D03*
X006752Y006508D03*
X006252Y006383D03*
X005377Y006883D03*
X005252Y007383D03*
X005377Y007883D03*
X005752Y008258D03*
X007127Y006883D03*
X005752Y006508D03*
X007127Y007883D03*
X025937Y008383D03*
X026437Y008258D03*
X026937Y007383D03*
X026437Y006508D03*
X025937Y006383D03*
X025062Y006883D03*
X024937Y007383D03*
X025062Y007883D03*
X025437Y008258D03*
X026812Y006883D03*
X025437Y006508D03*
X026812Y007883D03*
D29*
X016439Y002935D03*
X015750Y002935D03*
D30*
X014094Y004111D02*
X014094Y004711D01*
X015094Y004711D02*
X015094Y004111D01*
X016094Y004111D02*
X016094Y004711D01*
X017094Y004711D02*
X017094Y004111D01*
X018094Y004111D02*
X018094Y004711D01*
M02*
