%
M48
M72
T01C0.0079
T02C0.0118
T03C0.0157
T04C0.0217
T05C0.0320
T06C0.0394
T07C0.0400
T08C0.0472
T09C0.0768
T10C0.0945
T11C0.1181
%
T01
X6820Y11446
X7332Y11443
X7765Y11446
X6559Y13076
X6559Y13785
X6559Y14415
X6598Y14927
X6559Y15399
X7106Y14931
X5775Y13950
X5779Y13698
X5775Y13446
X5771Y13198
X5574Y12998
X5326Y12998
X5336Y12767
X5090Y12689
X4844Y12639
X4598Y12689
X4352Y12767
X4354Y13009
X4098Y12998
X3937Y13206
X3941Y13446
X3944Y13694
X3948Y13939
X4130Y14116
X4374Y14100
X4452Y14328
X4535Y14565
X5181Y14576
X5259Y14340
X5334Y14124
X5582Y14120
X5248Y14883
X5248Y15143
X5248Y15395
X5224Y15659
X5433Y16309
X5126Y16446
X5819Y16474
X6055Y16474
X6358Y16533
X5944Y16864
X6362Y17191
X5338Y17313
X4630Y17482
X4346Y18214
X3720Y17978
X3393Y18309
X3850Y18718
X4059Y19226
X4661Y19250
X4921Y18655
X5338Y18131
X6143Y18722
X6143Y18958
X6659Y19265
X5338Y19250
X4114Y20250
X4114Y20486
X3838Y20013
X3523Y20013
X3248Y20250
X3248Y20486
X2649Y20320
X2649Y20084
X2425Y19754
X2185Y19754
X2189Y19407
X2425Y19407
X2637Y19147
X2637Y18797
X2409Y18541
X2181Y18411
X2637Y18143
X2637Y17817
X2417Y17545
X2181Y17545
X1409Y17009
X1409Y16773
X1458Y16488
X1694Y16488
X3118Y16092
X3118Y15852
X3350Y16324
X3389Y17301
X4055Y16474
X4401Y16474
X4307Y16120
X4070Y16120
X3413Y19234
X2425Y20616
X2185Y20616
X7441Y24346
X7441Y24937
X11114Y29007
X11114Y29224
X12059Y29224
X12059Y29007
X12128Y28309
X12334Y28309
X12876Y29017
X13112Y29017
X12137Y27295
X12137Y27059
X11773Y25779
X11773Y25543
X11773Y25307
X13614Y25307
X13614Y25543
X13614Y25779
X19057Y29017
X19293Y29017
X5502Y12415
X4252Y12403
X19657Y5897
X19657Y5720
T02
X19962Y6730
X20228Y6730
X19637Y7133
X19637Y7389
X19637Y7655
X19962Y7921
X20228Y7921
X19637Y8285
X19637Y8551
X19637Y8817
X19637Y9082
X19913Y9082
X20189Y9082
X21133Y9086
X21409Y9086
X21685Y9086
X21685Y8820
X21685Y8555
X21685Y8289
X21685Y7659
X21685Y7393
X21685Y7128
X21488Y6360
X21212Y6360
X20937Y6360
X20937Y5257
X21212Y5257
X21488Y5257
X21685Y4476
X21685Y4200
X21685Y3925
X21685Y3334
X21685Y3059
X22610Y4299
X22876Y4299
X23141Y4299
X23407Y4299
X23683Y4299
X23948Y4299
X23948Y4574
X23948Y4850
X23948Y5126
X23948Y5401
X22610Y5401
X22610Y5126
X22610Y4850
X22610Y4574
X20228Y3663
X19637Y3378
X19637Y3102
X19637Y2826
X19637Y2551
X19913Y2551
X20189Y2551
X19637Y4096
X19637Y4372
X17925Y3269
X17649Y3269
X16488Y1734
X16094Y2029
X16094Y2305
X15819Y3269
X15543Y3269
X15228Y2423
X15228Y1911
X11232Y7340
X10956Y7340
X10326Y8850
X10051Y8850
X9342Y8850
X9067Y8850
X8269Y6202
X7994Y6202
X7649Y5858
X7649Y4673
X7994Y4328
X8269Y4328
X9027Y4720
X9303Y4720
X9608Y5214
X6055Y9220
X5208Y9515
X5208Y9535
X5297Y10224
X5956Y10628
X6143Y11307
X6350Y12281
X5925Y12285
X6212Y12862
X6212Y13423
X6212Y14131
X5779Y14486
X5771Y14919
X6122Y14919
X6944Y16521
X7224Y16521
X9372Y17935
X9795Y17925
X11252Y16911
X11527Y16911
X12118Y14293
X12393Y14293
X13791Y12206
X13791Y11931
X16232Y11931
X16232Y12206
X16055Y15021
X16055Y15297
X14775Y14706
X14500Y14706
X14500Y14982
X14500Y15257
X17059Y19667
X17295Y19667
X17551Y19667
X18752Y20415
X19027Y20415
X20385Y18407
X20661Y18407
X21350Y15946
X21350Y15671
X18712Y14254
X18712Y13978
X22551Y10700
X22551Y10435
X22551Y10159
X22551Y9893
X22551Y9628
X22826Y10700
X23102Y10700
X23378Y10700
X23653Y10700
X23683Y8387
X23948Y8387
X23948Y8112
X23948Y7836
X23948Y7561
X23948Y7285
X23407Y8387
X23141Y8387
X22876Y8387
X25537Y9362
X25813Y9362
X26088Y9362
X26364Y9362
X26639Y9362
X26639Y9628
X26639Y9893
X26639Y10159
X26639Y10435
X26639Y10700
X26364Y10700
X26088Y10700
X25813Y10700
X25537Y10700
X27049Y12480
X27049Y12756
X27049Y13031
X27403Y13238
X27403Y12273
X28574Y12275
X28958Y12492
X28958Y12748
X28958Y13004
X28584Y13240
X28506Y13693
X28506Y13968
X28506Y14244
X27187Y15513
X26911Y15513
X27029Y16685
X26754Y16685
X26478Y16685
X26202Y16685
X27029Y16970
X27029Y17246
X27029Y17521
X27029Y17797
X27029Y18072
X27029Y18338
X29173Y18712
X29448Y18712
X29724Y18712
X30000Y18712
X30000Y18437
X30000Y18161
X30000Y17885
X30000Y17620
X30757Y14057
X31033Y14057
X30533Y12952
X30533Y12687
X30130Y12391
X29509Y12383
X28624Y25078
X28348Y25078
X28072Y25078
X27797Y25078
X27521Y25078
X27246Y25078
X26124Y25069
X25848Y25069
X25572Y25069
X25297Y25069
X25021Y25069
X24746Y25069
X23200Y27826
X23791Y28082
X23791Y28358
X23791Y28633
X23200Y28899
X23673Y30011
X24214Y29677
X24214Y29401
X21832Y30218
X21832Y30484
X21557Y30484
X21281Y30484
X21006Y30484
X21006Y30218
X19588Y31567
X19588Y31842
X17472Y30582
X17472Y30120
X17078Y30120
X17078Y30582
X16754Y29017
X16104Y29017
X15691Y29017
X15041Y29017
X14391Y28161
X14116Y28161
X13555Y27285
X13555Y27009
X13319Y27777
X13319Y28053
X14716Y30120
X14716Y30582
X15110Y30582
X15110Y30120
X17334Y28161
X17610Y28161
X18358Y27295
X18358Y27019
X18939Y26626
X18496Y27994
X18496Y28220
X18496Y28437
X20769Y27895
X21045Y27895
X21320Y27895
X21694Y27285
X21694Y27009
X21419Y27009
X21419Y26734
X21694Y26734
X13909Y23013
X13633Y23013
X12807Y20838
X12531Y20838
X10169Y23472
X10986Y24240
X11724Y24643
X10307Y24978
X10287Y25696
X9067Y24653
X8889Y25529
X8279Y25569
X8791Y23738
X8417Y23043
X7826Y23043
X7444Y23307
X6507Y23752
X5189Y22817
X4687Y23988
X4834Y25372
X4342Y26287
X3742Y25480
X2620Y23387
X2443Y22232
X1950Y21504
X1586Y20631
X1311Y20631
X1307Y19734
X1586Y19734
X1582Y19427
X1303Y19427
X1307Y18478
X1582Y18478
X1582Y17525
X1303Y17525
X1196Y15126
X1649Y14883
X1734Y14289
X1232Y14161
X1507Y13324
X2236Y13187
X2275Y12675
X2795Y12324
X3299Y12793
X3389Y12289
X3799Y12281
X3732Y12754
X3535Y13265
X3259Y13580
X3535Y13817
X3181Y14092
X3535Y14289
X3342Y14726
X3000Y15128
X2555Y14883
X2102Y15120
X2561Y14181
X2236Y13777
X2738Y13433
X3759Y14730
X4165Y14565
X4842Y12301
X4126Y11631
X4588Y10578
X3840Y10214
X3250Y10145
X2610Y10756
X2226Y11533
X3250Y11356
X4165Y9328
X4687Y8718
X4283Y7763
X5090Y11257
X7177Y19283
X7443Y19283
X7826Y19559
X7817Y19943
X7248Y20004
X6982Y20004
X6982Y20500
X6982Y20992
X8820Y21878
X11114Y27196
X11114Y27964
X11872Y30149
X12167Y30464
X12275Y30937
X10927Y30887
X9185Y30450
X8978Y28988
X8978Y28220
X8033Y28220
X8033Y28988
X7167Y28541
X6429Y28492
X3858Y21565
X3507Y21565
X2885Y21198
T03
X5377Y6883
X5252Y7383
X5377Y7883
X5752Y8258
X6252Y8383
X6752Y8258
X7127Y7883
X7252Y7383
X7127Y6883
X6752Y6508
X6252Y6383
X5752Y6508
X6252Y25675
X5752Y25800
X5377Y26175
X5252Y26675
X5377Y27175
X5752Y27550
X6252Y27675
X6752Y27550
X7127Y27175
X7252Y26675
X7127Y26175
X6752Y25800
X24937Y26675
X25062Y26175
X25437Y25800
X25937Y25675
X26437Y25800
X26812Y26175
X26937Y26675
X26812Y27175
X26437Y27550
X25937Y27675
X25437Y27550
X25062Y27175
X25937Y8383
X26437Y8258
X26812Y7883
X26937Y7383
X26812Y6883
X26437Y6508
X25937Y6383
X25437Y6508
X25062Y6883
X24937Y7383
X25062Y7883
X25437Y8258
T04
X18220Y30679
X18220Y31950
X13968Y31950
X13968Y30679
T05
X23919Y24093
X23919Y22718
T06
X6185Y23389
X3185Y22989
X3185Y23789
T07
X14094Y4411
X15094Y4411
X16094Y4411
X17094Y4411
X18094Y4411
T08
X17332Y6098
X13395Y6059
T09
X11665Y11751
X10127Y13584
X9309Y15833
X10127Y20474
X11665Y22307
X18451Y23503
X20523Y22307
X22061Y20474
X22061Y13584
X20523Y11751
X18451Y10555
T10
X6185Y22389
X6185Y24389
X3935Y24389
X3935Y22389
T11
X6252Y26675
X6252Y7383
X25937Y7383
X25937Y26675
M30
